<svg xmlns="http://www.w3.org/2000/svg" viewBox="0 0 512 512">
  <defs>
    <linearGradient id="bg" x1="72" y1="48" x2="438" y2="474" gradientUnits="userSpaceOnUse">
      <stop stop-color="#1b2029"/>
      <stop offset=".58" stop-color="#11151d"/>
      <stop offset="1" stop-color="#090b10"/>
    </linearGradient>
    <linearGradient id="signal" x1="133" y1="122" x2="385" y2="397" gradientUnits="userSpaceOnUse">
      <stop stop-color="#dcff88"/>
      <stop offset=".58" stop-color="#c8f65a"/>
      <stop offset="1" stop-color="#72e6c1"/>
    </linearGradient>
    <radialGradient id="glow" cx=".5" cy=".43" r=".62">
      <stop stop-color="#c8f65a" stop-opacity=".2"/>
      <stop offset="1" stop-color="#c8f65a" stop-opacity="0"/>
    </radialGradient>
    <filter id="shadow" x="-40%" y="-40%" width="180%" height="180%">
      <feGaussianBlur stdDeviation="13"/>
    </filter>
  </defs>
  <rect width="512" height="512" rx="116" fill="url(#bg)"/>
  <rect x="1" y="1" width="510" height="510" rx="115" fill="none" stroke="#edf9db" stroke-opacity=".08" stroke-width="2"/>
  <circle cx="256" cy="256" r="202" fill="url(#glow)"/>
  <g fill="none" stroke="#c8f65a" stroke-linecap="round" opacity=".28" filter="url(#shadow)">
    <path d="M161 351a134 134 0 0 1 0-190" stroke-width="34"/>
    <path d="M351 161a134 134 0 0 1 0 190" stroke-width="34"/>
  </g>
  <g fill="none" stroke="url(#signal)" stroke-linecap="round">
    <path d="M161 351a134 134 0 0 1 0-190" stroke-width="30"/>
    <path d="M351 161a134 134 0 0 1 0 190" stroke-width="30"/>
    <path d="M207 305a69 69 0 0 1 0-98" stroke-width="30"/>
    <path d="M305 207a69 69 0 0 1 0 98" stroke-width="30"/>
  </g>
  <circle cx="256" cy="256" r="27" fill="url(#signal)"/>
</svg>
